<svg width="127" height="53" viewBox="0 0 127 53" fill="none" xmlns="http://www.w3.org/2000/svg">
<path d="M42.457 24.9648V45.6016C41.6133 46.5625 40.3242 47.5938 38.5898 48.6953C36.8789 49.7969 34.6875 50.7461 32.0156 51.543C29.3438 52.3164 26.1562 52.7031 22.4531 52.7031C19.1016 52.7031 16.0547 52.1641 13.3125 51.0859C10.5703 49.9844 8.21484 48.3789 6.24609 46.2695C4.27734 44.1367 2.75391 41.5352 1.67578 38.4648C0.621094 35.3945 0.09375 31.8789 0.09375 27.918V24.8945C0.09375 20.9336 0.621094 17.418 1.67578 14.3477C2.73047 11.2773 4.21875 8.6875 6.14062 6.57812C8.0625 4.44531 10.3477 2.82812 12.9961 1.72656C15.6445 0.625 18.5742 0.0742188 21.7852 0.0742188C26.3555 0.0742188 30.0938 0.8125 33 2.28906C35.9062 3.74219 38.1094 5.75781 39.6094 8.33594C41.1328 10.9141 42.0703 13.8789 42.4219 17.2305H31.3828C31.1484 15.5195 30.6797 14.043 29.9766 12.8008C29.2969 11.5586 28.3242 10.6094 27.0586 9.95312C25.793 9.27344 24.1523 8.93359 22.1367 8.93359C20.5195 8.93359 19.0547 9.27344 17.7422 9.95312C16.4531 10.6094 15.3633 11.6055 14.4727 12.9414C13.582 14.2773 12.9023 15.9414 12.4336 17.9336C11.9648 19.9023 11.7305 22.1992 11.7305 24.8242V27.918C11.7305 30.543 11.9648 32.8516 12.4336 34.8438C12.9258 36.8359 13.6406 38.5 14.5781 39.8359C15.5156 41.1484 16.6992 42.1445 18.1289 42.8242C19.582 43.5039 21.2695 43.8438 23.1914 43.8438C24.6914 43.8438 25.957 43.7266 26.9883 43.4922C28.0195 43.2344 28.8633 42.918 29.5195 42.543C30.1758 42.1445 30.668 41.7812 30.9961 41.4531V32.9453H21.8906V24.9648H42.457ZM82.7812 17.5117V26.0898H50.7188V17.5117H82.7812ZM82.7812 32.8047V41.3828H50.7188V32.8047H82.7812ZM126.375 0.8125V6.71875L106.898 52H95.2969L114.773 9.35547H89.8125V0.8125H126.375Z" fill="black"/>
</svg>
