<svg width="150" height="150" viewBox="0 0 150 150" fill="none" xmlns="http://www.w3.org/2000/svg">
<path d="M36.6755 0V147.967H26.7508L9.95521 52.3374V147.967H0V0H9.95521L26.7814 95.6301V0H36.6755Z" fill="black"/>
<path d="M59.1205 150C56.4943 150 54.1429 148.611 52.0664 145.833C49.9898 143.056 48.2288 139.228 46.7834 134.35C45.3583 129.404 44.2691 123.713 43.5159 117.276C42.7626 110.84 42.386 103.963 42.386 96.6463V92.7846C42.386 84.5867 42.7321 77.0325 43.4243 70.122C44.1164 63.2114 45.1242 57.2154 46.4475 52.1341C47.7911 46.9851 49.4401 43.0217 51.3945 40.2439C53.3489 37.3984 55.5782 35.9756 58.0822 35.9756C60.4235 35.9756 62.5102 37.2629 64.3424 39.8374C66.1747 42.3442 67.7219 45.9688 68.9841 50.7114C70.2463 55.3862 71.2032 61.0434 71.8546 67.6829C72.5265 74.2547 72.8624 81.6396 72.8624 89.8374V102.846H46.2337V82.4187H63.5179V79.9797C63.5179 76.1179 63.3042 72.7304 62.8766 69.8171C62.4695 66.9038 61.8587 64.668 61.0444 63.1098C60.2504 61.4837 59.2427 60.6707 58.0212 60.6707C56.8607 60.6707 55.8937 61.4837 55.1201 63.1098C54.3465 64.7358 53.7256 67.0393 53.2573 70.0203C52.8094 72.9336 52.4837 76.355 52.2801 80.2846C52.0765 84.1463 51.9748 88.313 51.9748 92.7846V96.6463C51.9748 100.915 52.1478 104.81 52.4939 108.333C52.84 111.856 53.3489 114.871 54.0208 117.378C54.6926 119.885 55.5069 121.85 56.4638 123.272C57.4206 124.695 58.5098 125.407 59.7313 125.407C61.2378 125.407 62.673 124.458 64.0371 122.561C65.4011 120.596 66.5818 117.547 67.5794 113.415L72.0379 130.386C71.366 133.638 70.4194 136.789 69.1979 139.837C67.9967 142.818 66.5513 145.257 64.8616 147.154C63.1718 149.051 61.2581 150 59.1205 150Z" fill="black"/>
<path d="M87.2455 117.378L93.7195 38.0081H99.7353L97.6893 73.374L91.2154 147.967H86.2989L87.2455 117.378ZM84.2834 38.0081L88.6197 117.073L89.0778 147.967H83.2146L75.0916 38.0081H84.2834ZM105.599 115.549L109.904 38.0081H119.096L111.034 147.967H105.171L105.599 115.549ZM100.468 38.0081L107.003 116.972L107.95 147.967H102.972L96.5594 73.4756L94.605 38.0081H100.468Z" fill="black"/>
<path d="M140.778 117.378C140.778 115.346 140.584 113.55 140.197 111.992C139.831 110.434 139.159 109.011 138.182 107.724C137.225 106.436 135.871 105.149 134.121 103.862C132.471 102.71 130.934 101.22 129.509 99.3902C128.084 97.4932 126.842 95.2236 125.784 92.5813C124.725 89.8713 123.901 86.687 123.31 83.0285C122.72 79.3022 122.425 75.0678 122.425 70.3252C122.425 65.7182 122.72 61.3482 123.31 57.2154C123.921 53.0827 124.796 49.4241 125.936 46.2398C127.097 43.0556 128.502 40.5488 130.151 38.7195C131.82 36.8902 133.713 35.9756 135.831 35.9756C138.742 35.9756 141.256 37.5 143.373 40.5488C145.491 43.5298 147.119 47.7304 148.259 53.1504C149.399 58.5027 149.969 64.6341 149.969 71.5447H140.442C140.442 68.6992 140.279 66.2263 139.953 64.126C139.627 62.0257 139.129 60.3997 138.457 59.248C137.785 58.0285 136.899 57.4187 135.8 57.4187C134.945 57.4187 134.192 57.9268 133.54 58.9431C132.909 59.8916 132.41 61.2127 132.044 62.9065C131.698 64.6003 131.525 66.565 131.525 68.8008C131.525 70.3591 131.627 71.7818 131.83 73.0691C132.054 74.2886 132.39 75.4404 132.838 76.5244C133.306 77.5407 133.907 78.4553 134.64 79.2683C135.393 80.0813 136.309 80.8604 137.388 81.6057C139.689 83.0285 141.785 85.0271 143.679 87.6016C145.592 90.1762 147.119 93.7331 148.259 98.2724C149.42 102.812 150 108.808 150 116.26C150 121.138 149.664 125.61 148.992 129.675C148.341 133.74 147.394 137.297 146.152 140.346C144.91 143.394 143.424 145.766 141.694 147.459C139.963 149.153 138.009 150 135.831 150C132.716 150 130.079 148.137 127.921 144.411C125.763 140.684 124.135 136.009 123.035 130.386C121.956 124.695 121.417 118.869 121.417 112.907H130.364C130.405 116.565 130.68 119.546 131.189 121.85C131.718 124.153 132.4 125.847 133.235 126.931C134.07 127.947 135.006 128.455 136.044 128.455C137.083 128.455 137.948 127.981 138.64 127.033C139.332 126.084 139.862 124.797 140.228 123.171C140.594 121.477 140.778 119.546 140.778 117.378Z" fill="black"/>
</svg>
