<svg id="ba2ed504-df02-4254-a613-72a733b15bb6" data-name="Layer 1" xmlns="http://www.w3.org/2000/svg" viewBox="0 0 997 997"><defs><style>.ebe011cb-8947-4732-8424-c78005058866{fill:#1d1d1d;}.ebe011cb-8947-4732-8424-c78005058866,.fb68ba16-aafa-4fe1-ac40-91e46329eaaa{stroke:#fff;stroke-miterlimit:10;stroke-width:17px;}.b2c38ed3-6244-4bd1-9225-a8fca6ed462d{fill:#fff;}.fb68ba16-aafa-4fe1-ac40-91e46329eaaa{fill:none;}</style></defs><rect class="ebe011cb-8947-4732-8424-c78005058866" x="8.5" y="8.5" width="980" height="980" rx="156.34"/><path class="b2c38ed3-6244-4bd1-9225-a8fca6ed462d" d="M261.52,613c5.15,27.4,4.56,46.79-1.47,58.66C253.4,684.89,237.33,684.2,212,670q-2.88-1.6-8.3-4.81l-8.1-4.52c-27.77-15.51-44.35-25.63-50.06-30.55a15.63,15.63,0,0,1-4.92-8.11c-4-14.77-9.7-37.44-17.32-68.75-7.94-32.65-14.37-58.17-19.09-75.77C99,458.17,88.39,420.32,71.69,361.43c-4.46-15.74-11.39-39.91-21-73.21l-1.3-4.37q-1.71-5.93,2.27-5.17c2.67.52,12.89,4.93,30.82,13.28,29.14,13.59,46.46,21.85,51.59,24.62,23.53,12.65,42.5,29,56.59,48.74,18.49,26.06,31.81,60.86,39.82,103a107.52,107.52,0,0,1,1.5,31,87.33,87.33,0,0,1-4.33,19.63c-1.87,5.26-2.85,7.61-3,7.11q.36,1.76,4.5,7.25c7.41,9.78,14.21,22.66,20.35,38.49A230.73,230.73,0,0,1,261.52,613Zm-84.46-169c-3.45-15.75-9.64-28.25-18.52-37.28q-7.41-7.41-22.1-14.58-14.31-7-13.19-2.45,1.31,5.36,3.46,15.85T130.1,421c4.38,17.94,7.51,28.18,9.47,31,1.32,2,6.91,5.56,16.82,10.58C174.92,472,181.89,466,177.06,443.94Zm34.27,141.4c-3-13.84-8.19-25-15.54-33.34q-7-7.9-20.45-14.94-15.89-8.35-16.66-6.78c-.53,1,1.37,10.45,5.64,28,4.35,17.87,7.23,27.86,8.7,30.26s7.37,6.38,17.75,12q12.9,7,17.38,6.12C213.1,605.53,214.18,598.48,211.33,585.34Z" transform="translate(-2 -2)"/><path class="b2c38ed3-6244-4bd1-9225-a8fca6ed462d" d="M319.84,576.83c2.82,19.38,7.19,47.77,13,84.16,5.5,34.69,9.32,59.54,11.63,75.5.38,2.67.25,4.13-.4,4.38a17.59,17.59,0,0,1-3.11-1q-7.8-2.9-21.16-10.35c-11.87-6.63-19.47-11.35-22.88-14.22a13.46,13.46,0,0,1-4.62-8.18c.39,2.15-1.37-9.56-5.38-35.85-9.08-58.92-15.71-100.51-19.39-121.4-3.18-18.05-8.42-46.07-15.91-85.11-7.85-40.94-13.83-72.9-17.71-94.78-.81-4.56-.08-6.33,2.2-5.26q4.6,2.15,14.1,7.44t14.21,7.5q4.68,2.19,13.71,5.54t13.84,5.58q4.45,2.09,5.44,9c3.14,21.89,7.13,53.42,11.86,93.46C313.72,531.3,317.22,558.83,319.84,576.83Z" transform="translate(-2 -2)"/><path class="b2c38ed3-6244-4bd1-9225-a8fca6ed462d" d="M542.86,846.31q.28,5.4-3.87,3.09-2.62-1.47-15.12-12.68t-15.43-14.4c-18.54.21-36.13-4.45-53-13.9-26.88-15-50-40.77-70.22-78.28C364.57,691.94,351,649,344.5,599.92c-7.06-53.73-3.93-96.67,10.38-127.26,15.7-33.64,40.93-43.41,75.4-27.42,17,7.88,33.39,21.47,49,40.61,16.83,20.83,30.14,45,39.86,72.22q2.94,8.29,3,11.15c.09,6.08-4.62,17.13-13.89,32.8-9,15.19-14.73,21.92-17.44,20.55-.63-.31-3.15-5.09-7.61-14.41a181.25,181.25,0,0,0-16.62-28.27q-12.57-17.16-27-24.29c-15.56-7.67-27-3.42-34.11,12.33-6.49,14-8.4,34-5.92,59.58,2.53,26.14,8.41,48.28,17.6,66.88,9.36,18.89,21.37,32.2,36.24,40.22a54.38,54.38,0,0,0,31.5,6.12c-.49-5-1.89-18-4.25-39.39-2-17-3.26-30.76-3.74-41.18-.14-3.12.42-4.68,1.7-4.67a4.77,4.77,0,0,1,2.4.75q4.38,2.25,13.32,8.19a155.67,155.67,0,0,0,13.55,8.31c3.27,1.69,8.17,3.85,14.74,6.49s11.56,4.85,14.88,6.56c2.6,1.33,3.9,4.71,3.91,10.09,0,7.76-.25,19.16-.78,34-.52,14.55-.77,25.29-.75,32.4,0,18.76,1,46.36,2.86,81.77Z" transform="translate(-2 -2)"/><path class="b2c38ed3-6244-4bd1-9225-a8fca6ed462d" d="M656.12,537.14c-.27,3.81-1,6-2.33,6.68-2.22,1.12-10.94,4.16-26.31,9.15-2.85,46.91-4.68,78-5.59,95-1,19.56-2.31,47.88-3.76,83.9-1.37,34.22-2.47,58.81-3.34,74.76a14.27,14.27,0,0,1-.93,5.17,11.21,11.21,0,0,1-2.15,2.19,76,76,0,0,1-13.24,9.16q-9.71,5.6-13.59,6.27-2.08.24-1.93-4.93c.49-15.87,1.5-40.57,3.09-75.08,1.67-36.32,2.85-64.76,3.46-84.26.42-13.19,1.15-43.36,2.23-92.7q-18.35,14.88-29.25,20.4c-1,.5-1.46-.19-1.44-2.08,0-2.45.54-10,1.56-22.76,1.17-14.21,1.85-22.94,2-26q.48-14.37,1.06-29.13c.67-16,1.57-24.35,2.68-24.88a10.22,10.22,0,0,1,1.36-.33q15.63-.83,45.92-15.4,8.52-4.1,31.6-21.09,12.35-9,12.44-9.07c1.24-.59,1.93-.66,2.08-.22a34.64,34.64,0,0,1-.07,6.09c-.41,5.74-1,13.67-1.86,23.74-.9,11-1.5,18.63-1.81,23.08-.36,5-.68,12.25-1,21.62S656.45,532.54,656.12,537.14Z" transform="translate(-2 -2)"/><path class="b2c38ed3-6244-4bd1-9225-a8fca6ed462d" d="M691.09,611.23c-1.93,19.67-4.59,48.22-7.88,84.61-3.12,34.59-5.44,59.45-7,75.54a16.42,16.42,0,0,1-1.15,5.41,18,18,0,0,1-1.95,1.88,78.27,78.27,0,0,1-12.73,8.83q-10.61,6.11-13.41,6.2-2,0-1.65-5c-.16,2.14,1-9.86,3.48-36.79,5.57-60.42,9.35-103,11-124.08,1.43-18.25,3.44-46.38,6.11-85.51,2.8-41.19,5.11-73.6,6.85-96,.36-4.68,1.25-7.37,2.66-8.05a69.42,69.42,0,0,1,8.51-3.15,70,70,0,0,0,8.45-3.13,85.66,85.66,0,0,0,8.4-4.95,87.32,87.32,0,0,1,8.37-4.93c1.75-.84,2.39,1.1,1.92,5.78-2.23,22.42-5.79,55.12-10.55,96.89C696,564.5,692.88,593,691.09,611.23Z" transform="translate(-2 -2)"/><path class="b2c38ed3-6244-4bd1-9225-a8fca6ed462d" d="M841.85,367.59c-4.06,23.76-10.2,58.4-18.2,102.59-7.59,42-12.93,72.08-16.23,91.54L782,711q-.93,5.52-2.9,6.64c-1.08.62-2.75,1.7-5,3.24s-3.91,2.62-5,3.24a34.49,34.49,0,0,1-5.2,2.26,32.74,32.74,0,0,0-5.21,2.26c-.83.47-1.47-1.19-1.93-5-1.3-11.46-4.4-37.68-9.55-80.86-1.45-12.7-3.8-31.83-7.15-58a5.34,5.34,0,0,0-.79-2.43,24.57,24.57,0,0,0-1.34,5.92c-2.47,19.35-5.88,47.38-10.14,83.1-4.05,34-7,58.55-9.08,74.48-.61,4.74-1.54,7.46-2.81,8.18l-24.51,14.1c-1.38.79-1.84-.89-1.39-5.06,1.6-14.75,4.34-37.77,8.32-69.89,4.17-33.61,7.29-59.79,9.24-77.67,2.12-19.34,5.13-49.08,9.15-90.45,4.25-43.67,7.72-78.07,10.3-101.84q.77-7,4.24-8.68a74.92,74.92,0,0,0,13-8.64,99.76,99.76,0,0,0,7.48-7.53q4.77-5,7.32-6.23c.71-.34,1.33,2.8,1.87,9.37L771.71,535c.85,10.8,2.19,26.22,4,45.92.49,4.46,1.18,6.43,2.09,5.95.65-.35,2-7,4-20,2.76-17.94,6.74-45.58,12.07-84,5.6-40.3,10.16-72,13.52-94,1.2-7.81,2.39-12,3.58-12.6q5.1-2.44,15.57-8.94T842,358.47C843,358,843,361,841.85,367.59Z" transform="translate(-2 -2)"/><path class="b2c38ed3-6244-4bd1-9225-a8fca6ed462d" d="M926.7,415.06a220,220,0,0,1-5.88,21.5q-25,74.25-55.38,151.13a122,122,0,0,0-5.86,18.62c-1.66,8-4,19.65-7,34.91-2.9,14.95-5.09,25.93-6.6,33.11a17.85,17.85,0,0,1-1.47,4.82,24.87,24.87,0,0,1-2,2q-2.61,2.58-12,8c-6.37,3.66-10.37,5.6-12,5.8q-1.69.25-.71-4.87c1.4-7.31,3.78-18.7,7.16-34.37,3.45-16,6-28.15,7.55-36.26a75.39,75.39,0,0,0,1.37-14.86c-.61-23.69-1-62.16-1.11-118.09a105.53,105.53,0,0,1,1.35-16.76c2-11.24,4.86-28.31,8.68-51.59,3.92-23.94,7-42.38,9.24-55,1.23-7,2.4-10.78,3.51-11.31a138.67,138.67,0,0,1,15-5.71,135.87,135.87,0,0,0,14.89-5.69c1.24-.6,1.56.7.94,3.87-2.08,10.73-5.27,26.68-9.53,47.58-4.17,20.42-7.16,35.36-9,45.1-1.09,5.69-1.57,18.58-1.43,38.27.16,15,.46,26.25.88,33.93,3.69-9.37,8.93-23.41,15.82-42.33,8.84-24.18,13.83-38.84,14.82-43.57,2-9.54,4.88-24.1,8.69-43.94,3.89-20.31,7-35.85,9.15-46.31.93-4.44,1.69-7.09,2.31-8l2-1a159.16,159.16,0,0,0,14.68-8.61,159.67,159.67,0,0,1,14.65-8.6c1-.5.54,3.82-1.5,12.88-2.49,11.05-6.13,27.39-10.85,48.74C932.43,389.45,929,404.84,926.7,415.06Z" transform="translate(-2 -2)"/><path class="b2c38ed3-6244-4bd1-9225-a8fca6ed462d" d="M649.29,347.61q-7.21,3.19-23.93,8.69t-24.51,8.92q-7.73,3.4-24.83,10.56t-25.49,10.85q-8.25,3.63-22.63-2.64c-3.47-1.51-14.89-8.33-34.06-20.3-21.19-13-65.83-34.21-132.33-63-20.07-8.7-50.69-21.21-91.35-37.34-39.81-15.8-68.43-27.49-86.32-35.27q-9.24-4-2.13-7.41c6.65-2.95,15.78-7.63,27.31-14,15.78-10.24,25.16-15.87,28.31-17,4.6-1.65,17.94,1.23,40.19,8.68,26.29,8.78,45.37,13.73,57,14.78q63.82,5.49,143.85,6.51,101.48,1.49,125.45-8.07c13.67-5.45,18.32-12.56,14.06-21.29S602.46,174,584.31,167.19q-30.37-11.31-68.79-18.88-25.23-5.2-57.13-9.17-26.56-3.45-28.33-4.13c-8.09-3.07-4.46-7.34,10.76-12.8,11.72-4.19,19.58-7.44,23.64-9.76,2-1,5.21-3.5,9.77-7.35,3.65-3.35,7-5.58,10.17-6.69q3.59-1.27,12.91-.27c30.51,3.26,65.68,9.79,105.84,19.7q54.39,13.47,99.45,29.5c49.78,17.74,84.89,36,104.75,54.93,24.3,22.85,20,41.82-13.86,56.55C747.28,278.89,640,282.5,474.88,269.42c72.64,27.66,130.71,50.4,172.87,67.71Q660.83,342.5,649.29,347.61Z" transform="translate(-2 -2)"/><path class="fb68ba16-aafa-4fe1-ac40-91e46329eaaa" d="M48.12,217.56,534.78,438.85c10,4.56,26.14,4,35.83-1.17l362-194.14" transform="translate(-2 -2)"/><path class="fb68ba16-aafa-4fe1-ac40-91e46329eaaa" d="M136.86,678.77,535.48,898.69c9.63,5.31,25.25,5.06,34.71-.55L900.8,702" transform="translate(-2 -2)"/></svg>